<svg xmlns="http://www.w3.org/2000/svg" viewBox="0 0 360 360" fill="none" shape-rendering="auto" width="128" height="128"><metadata xmlns:rdf="http://www.w3.org/1999/02/22-rdf-syntax-ns#" xmlns:xsi="http://www.w3.org/2001/XMLSchema-instance" xmlns:dc="http://purl.org/dc/elements/1.1/" xmlns:dcterms="http://purl.org/dc/terms/"><rdf:RDF><rdf:Description><dc:title>Avatar Illustration System</dc:title><dc:creator>Micah Lanier</dc:creator><dc:source xsi:type="dcterms:URI">https://www.figma.com/community/file/829741575478342595</dc:source><dcterms:license xsi:type="dcterms:URI">https://creativecommons.org/licenses/by/4.0/</dcterms:license><dc:rights>Remix of „Avatar Illustration System” (https://www.figma.com/community/file/829741575478342595) by „Micah Lanier”, licensed under „CC BY 4.0” (https://creativecommons.org/licenses/by/4.0/)</dc:rights></rdf:Description></rdf:RDF></metadata><mask id="viewboxMask"><rect width="360" height="360" rx="0" ry="0" x="0" y="0" fill="#fff" /></mask><g mask="url(#viewboxMask)"><rect fill="#ffd5dc" width="360" height="360" x="0" y="0" /><g transform="translate(80 23)"><path d="M154 319.5c-14.4-20-25.67-58.67-27-78L58.5 212 30 319.5h124Z" fill="#fff" stroke="#000" stroke-width="4"/><path d="M130.37 263.69c-2.1.2-4.22.31-6.37.31-30.78 0-56.05-21.57-58.76-49.1L127 241.5c.38 5.48 1.55 13.32 3.37 22.19Z" fill="#000" style="mix-blend-mode:multiply"/><path d="M181.94 151.37v.01l.1.4.14.65A75.72 75.72 0 0 1 34.93 187.7l-.2-.74L18 117.13l-.06-.29A75.72 75.72 0 0 1 165.2 81.55l.05.21.02.08.05.2.05.2v.01l16.4 68.44.08.34.08.34Z" fill="#fff" stroke="#000" stroke-width="4"/><g transform="translate(34 102.3)"></g></g><g transform="translate(170 183)"><path d="M10 24.16c4.94 6.45 12.43 13.6 23.98 11.96 11.55-1.62 16.68-9.6 15.17-16.04" stroke="#000000" stroke-width="4"/></g><g transform="translate(110 102)"><path d="M27 26.5c6.17 2.5 21.1 3 31.5-15M94 4c5.17 5.33 18.1 12.8 28.5 0" stroke="#000000" stroke-width="4" stroke-linecap="round"/></g><g transform="translate(49 11)"><g fill="#9287ff"><path opacity=".1" d="M187.99 77.18c-8-6.4-21.84-7-27.5-6.5l-8-26.5c13.6 3.2 32 24 35.5 33Z"/><path d="M85.8 11.76S91.52 7.8 115.74 1.7c24.21-6.1 33.04-3.72 33.04-3.72l11.8 72.84s-8.05-.18-28.04 4.19c-20 4.38-29.56 9.67-29.56 9.67l-17.2-72.9Z"/><path d="M48.99 86.68c-6.8-41.6 23.33-68.17 37-75.5l16.98 73.5c-19.2-39.6-45.33-15.17-54 2Z"/><path opacity=".1" d="M67.49 130.68c-7.2-27.2 22-41.84 35.5-46-7-16.34-23-31-42.5-13-18 30.5-11 54-5.5 72l12.5-13Z"/></g></g><g transform="translate(142 119)"><path d="M26.47 24.36c1.86 6.36-5.04 1.48-11.4 3.33-6.36 1.86-9.78 9.76-11.64 3.4a12 12 0 0 1 23.04-6.73ZM90.26 15.17c1.64 6.42-4.7 1.52-11.11 3.15-6.43 1.64-10.51 9.19-12.15 2.77a12 12 0 1 1 23.26-5.92Z" fill="#d2eff3"/><path d="M5.29 34.07c.11.82 1.14 1 1.72.41 2.46-2.52 6.25-4.36 10.65-4.89 2.6-.3 5.1-.12 7.32.48.75.2 1.5-.44 1.23-1.17A10.84 10.84 0 0 0 5.3 34.07ZM69.38 24.07c.12.82 1.15 1 1.73.41 2.44-2.48 6.19-4.3 10.54-4.83 2.56-.3 5.03-.12 7.23.47.75.2 1.5-.44 1.23-1.17a10.74 10.74 0 0 0-20.73 5.12Z" fill="#000000"/><g transform="translate(-40 -8)"></g></g><g transform="rotate(-8 1149.44 -1186.92)"><path d="M16.5 7c-.33 3.83 0 12.2 4 15 5 3.5-.5 12-10.5 10" stroke="#000" stroke-width="4"/></g><g transform="translate(84 154)"><path d="M37 8.25V7.13l-.95-.59A24.91 24.91 0 0 0 23.08 3C17.44 3 12.16 4.75 8.4 8.3c-3.8 3.58-5.86 8.83-5.31 15.37.52 6.37 2.66 11.06 6.2 14.17-.29 1-.37 2.08-.24 3.21a8.98 8.98 0 0 0 4.6 7.08C16.09 49.5 19.2 50 22.52 50c5.48 0 10.29-2.95 13.95-6.89l.53-.57V8.25Z" stroke="#000" stroke-width="4"/><path d="M42.97 23.98c.07-.65.1-1.3.1-1.98 0-10.22-9.5-17-20-17C12.6 5 4.09 11.5 5.09 23.5c.56 6.68 2.95 11.07 6.65 13.72a5.7 5.7 0 0 0-.68 3.6C11.68 46.1 16.19 48 22.52 48c11.1 0 19.9-14.05 20.45-24.02Z" fill="#fff"/><path d="M27.5 13.5c-4-1.83-12.8-2.8-16 8" stroke="#000" stroke-width="4"/><path d="M17 14c2.17 1.83 6.3 7.5 5.5 15.5" stroke="#000" stroke-width="4"/><g transform="translate(3 42)"><circle cx="25" cy="2" r="4" fill="#9287ff"/><circle cx="26" cy="1" r="1" fill="#fff"/></g></g><g transform="translate(53 272)"><g stroke="#000" stroke-width="4"><path d="M126.77 67.58 128 66l-1.23 1.58 1.72 1.34 1.19-1.83v-.02l.05-.06.04-.05a28.57 28.57 0 0 1 .8-1.18 112.35 112.35 0 0 1 11.5-14.05c3.67-3.78 7.83-7.4 12.13-9.93 4.31-2.53 8.58-3.84 12.53-3.3C209.17 44.2 240.4 63 260.67 91h-273.3c16.3-29.34 39.49-48.02 77.07-56.59 1.6-.36 3.78-.25 6.5.38 2.7.63 5.77 1.73 9.09 3.19 6.62 2.9 14.02 7.16 20.97 11.56a355.78 355.78 0 0 1 25.24 17.63l.4.3.1.08.02.02h.01Z" fill="#ffffff"/><path d="m52.61 37.08 5.17-19.23c.2-.78 1.22-1 1.76-.4C74.4 33.7 93.16 33.08 99.4 32.33c.84-.1 1.5.82 1.1 1.58L87.34 58.86c-.2.38-.62.6-1.04.5-3.95-.82-23.62-5.63-33.57-21.5a1 1 0 0 1-.12-.78ZM183.2 36.98 171.61 17.5c-.4-.66-1.37-.65-1.79 0-5.73 8.83-15.63 12.9-19.09 14.1-.62.22-.9.96-.57 1.53l13.5 22.81c.2.34.59.53.97.42 2.13-.61 9.46-3.67 18.54-18.34a1 1 0 0 0 .01-1.04Z" fill="#ffffff"/><path d="m52.61 37.08 5.17-19.23c.2-.78 1.22-1 1.76-.4C74.4 33.7 93.16 33.08 99.4 32.33c.84-.1 1.5.82 1.1 1.58L87.34 58.86c-.2.38-.62.6-1.04.5-3.95-.82-23.62-5.63-33.57-21.5a1 1 0 0 1-.12-.78ZM183.2 36.98 171.61 17.5c-.4-.66-1.37-.65-1.79 0-5.73 8.83-15.63 12.9-19.09 14.1-.62.22-.9.96-.57 1.53l13.5 22.81c.2.34.59.53.97.42 2.13-.61 9.46-3.67 18.54-18.34a1 1 0 0 0 .01-1.04Z" fill="#fff" fill-opacity=".75"/><path d="m109.5 54.5-9-21.5-7 15 16 6.5ZM141 53.5l9-21.5 7 15-16 6.5ZM70.5 14l-12 3 10 6.5 2-9.5ZM160 14l11 3-7 6.5-4-9.5Z" fill="#000" stroke-linejoin="round"/></g></g></g></svg>