<svg xmlns="http://www.w3.org/2000/svg" viewBox="0 0 360 360" fill="none" shape-rendering="auto" width="128" height="128"><metadata xmlns:rdf="http://www.w3.org/1999/02/22-rdf-syntax-ns#" xmlns:xsi="http://www.w3.org/2001/XMLSchema-instance" xmlns:dc="http://purl.org/dc/elements/1.1/" xmlns:dcterms="http://purl.org/dc/terms/"><rdf:RDF><rdf:Description><dc:title>Avatar Illustration System</dc:title><dc:creator>Micah Lanier</dc:creator><dc:source xsi:type="dcterms:URI">https://www.figma.com/community/file/829741575478342595</dc:source><dcterms:license xsi:type="dcterms:URI">https://creativecommons.org/licenses/by/4.0/</dcterms:license><dc:rights>Remix of „Avatar Illustration System” (https://www.figma.com/community/file/829741575478342595) by „Micah Lanier”, licensed under „CC BY 4.0” (https://creativecommons.org/licenses/by/4.0/)</dc:rights></rdf:Description></rdf:RDF></metadata><mask id="viewboxMask"><rect width="360" height="360" rx="0" ry="0" x="0" y="0" fill="#fff" /></mask><g mask="url(#viewboxMask)"><rect fill="#c0aede" width="360" height="360" x="0" y="0" /><g transform="translate(80 23)"><path d="M154 319.5c-14.4-20-25.67-58.67-27-78L58.5 212 30 319.5h124Z" fill="#fff" stroke="#000" stroke-width="4"/><path d="M130.37 263.69c-2.1.2-4.22.31-6.37.31-30.78 0-56.05-21.57-58.76-49.1L127 241.5c.38 5.48 1.55 13.32 3.37 22.19Z" fill="#000" style="mix-blend-mode:multiply"/><path d="M181.94 151.37v.01l.1.4.14.65A75.72 75.72 0 0 1 34.93 187.7l-.2-.74L18 117.13l-.06-.29A75.72 75.72 0 0 1 165.2 81.55l.05.21.02.08.05.2.05.2v.01l16.4 68.44.08.34.08.34Z" fill="#fff" stroke="#000" stroke-width="4"/><g transform="translate(34 102.3)"></g></g><g transform="translate(170 183)"><path d="M10 24.16c4.94 6.45 12.43 13.6 23.98 11.96 11.55-1.62 16.68-9.6 15.17-16.04" stroke="#000000" stroke-width="4"/></g><g transform="translate(110 102)"><path d="M27 26.5c6.17 2.5 21.1 3 31.5-15M94 4c5.17 5.33 18.1 12.8 28.5 0M37.15 26.46 31 21.03M116.22 9.44l1.78-8M45.6 22.81l-4.05-7.13M108.14 9.02l.94-8.15M52.67 17.2l-2.2-7.9M100 8.03l-.78-8.16" stroke="#000000" stroke-width="4" stroke-linecap="round"/></g><g transform="translate(49 11)"><path d="m-13.4 312.86-.62-1.64c-.56-1.55-1.35-3.84-2.23-6.74a163.21 163.21 0 0 1-5.28-23.98c-2.81-19.77-2.8-45.8 8.4-71.12 1.8-4.09 4.07-8.3 6.52-12.85 9.47-17.6 21.77-40.46 21.77-82.45 0-30.59 14.84-56.35 36.7-74.51 21.88-18.18 50.7-28.66 78.38-28.66 15.13 0 27.3 1.73 37.07 7.64 9.72 5.87 17.37 16.05 23.05 33.58a3.47 3.47 0 0 0 4.36 2.27c11.31-3.67 28.47.04 42.95 9.5 14.42 9.4 25.62 24.15 25.62 41.91 0 15.43-2.64 25.85-5.22 36-3.12 12.3-6.13 24.16-4 43.5.7 6.45 2.15 11.03 4.16 14.82 1.98 3.73 4.48 6.62 7.12 9.66l.05.07c6.28 7.25 9.13 13.22 10.06 18.47.92 5.23-.05 9.98-1.84 14.9-.9 2.48-2 4.97-3.15 7.59l-.1.22c-1.12 2.53-2.3 5.19-3.35 7.98-2.18 5.77-3.89 12.2-3.72 19.83.15 6.48 1.3 10.91 3.01 14.27 1.7 3.32 3.89 5.44 5.8 7.3l.05.05c1.74 1.68 3.2 3.1 4.27 5.1.96 1.78 1.67 4.13 1.79 7.66a172.14 172.14 0 0 1-87.4 23.9 110.86 110.86 0 0 1-7.28-.28c-6.15-9.4-11.75-24.88-16.1-40.8-4.21-15.46-7.18-31.08-8.3-41.4 37.08-10.72 60.32-48.98 54.73-88.46l-.01-.12a5.97 5.97 0 0 0-.08-.47 76.68 76.68 0 0 0-.43-2.25 486.97 486.97 0 0 0-6.53-28.2 276.64 276.64 0 0 0-7.45-24.2c-2.76-7.5-5.83-14.15-9.1-18.24l-.3-.37-.44-.2c-1.93-.83-3.94-1.77-6.03-2.74-9.93-4.62-21.84-10.17-37.26-10.78-18.78-.74-42.56 5.78-74.7 29.09l-2.02 1.46 1.95 1.57c15.92 12.83 19.37 29.86 18.63 44.3a89.2 89.2 0 0 1-5.24 25.1c-1.16-1.69-1.9-3.82-2.45-6.33a85.19 85.19 0 0 1-.96-5.45l-.05-.3c-.3-2-.63-4.08-1.1-6.09-.96-4.01-2.57-8.02-6.14-10.86-3.58-2.84-8.8-4.25-16.4-3.83l-2.22.13.46 2.18 11.36 53.31.02.08.03.09a79.8 79.8 0 0 0 19.91 32.81 65.49 65.49 0 0 1 1.54 2.68c1.01 1.82 2.37 4.38 3.76 7.33 2.82 5.94 5.66 13.24 6.2 19.2.57 6.05-.96 13.86-2.7 20.31a129.63 129.63 0 0 1-2.84 9.14c-5.03-2.4-9.53-2.23-13.38.01-4.16 2.43-7.21 7.06-9.48 12.22-4.15 9.42-6.14 21.64-7.06 29.22A601.65 601.65 0 0 1 6.2 320.1 353.85 353.85 0 0 1-9 314.64a190.8 190.8 0 0 1-4.4-1.77Z" fill="#e0ddff" stroke="#000" stroke-width="3.82"/></g><g transform="translate(142 119)"><g fill="#000000"><ellipse cx="16.53" cy="29.4" rx="9" ry="13.5" transform="rotate(-6.78 16.53 29.4)"/><ellipse cx="80.53" cy="19.4" rx="9" ry="13.5" transform="rotate(-6.28 80.53 19.4)"/></g><g transform="translate(-40 -8)"></g></g><g transform="rotate(-8 1149.44 -1186.92)"><path d="M12.3 12.34c5.45-1.24 14.38.62 12.42 10.54-1.74 8.82-11.1 9.3-13.72 6.82" stroke="#000" stroke-width="4"/></g><g transform="translate(84 154)"><path d="M30.5 6.18A23.78 23.78 0 0 0 23.08 5c-10.5 0-19 6.5-18 18.5 1.04 12.5 8.5 17 19 17A19.6 19.6 0 0 0 31 39.23" stroke="#000" stroke-width="8"/><path d="M31.5 39.04a19.38 19.38 0 0 1-7.42 1.46c-10.5 0-17.96-4.5-19-17-1-12 7.5-18.5 18-18.5 3.14 0 6.19.6 8.92 1.73l-.5 32.3Z" fill="#fff"/><path d="M27.5 13.5c-4-1.83-12.8-2.8-16 8" stroke="#000" stroke-width="4"/><path d="M17 14c2.17 1.83 6.3 7.5 5.5 15.5" stroke="#000" stroke-width="4"/><g transform="translate(3 35)"><path d="M24 0A24 24 0 1 1 0 24c0-6.4 3.5-11.5 6.57-16.5L7.5 6" stroke="#ffeba4" stroke-width="4"/></g></g><g transform="translate(53 272)"><g stroke="#000" stroke-width="4"><path d="M126.77 67.58 128 66l-1.23 1.58 1.72 1.34 1.19-1.83v-.02l.05-.06.04-.05a28.57 28.57 0 0 1 .8-1.18 112.35 112.35 0 0 1 11.5-14.05c3.67-3.78 7.83-7.4 12.13-9.93 4.31-2.53 8.58-3.84 12.53-3.3C209.17 44.2 240.4 63 260.67 91h-273.3c16.3-29.34 39.49-48.02 77.07-56.59 1.6-.36 3.78-.25 6.5.38 2.7.63 5.77 1.73 9.09 3.19 6.62 2.9 14.02 7.16 20.97 11.56a355.78 355.78 0 0 1 25.24 17.63l.4.3.1.08.02.02h.01Z" fill="#9287ff"/><path d="m52.61 37.08 5.17-19.23c.2-.78 1.22-1 1.76-.4C74.4 33.7 93.16 33.08 99.4 32.33c.84-.1 1.5.82 1.1 1.58L87.34 58.86c-.2.38-.62.6-1.04.5-3.95-.82-23.62-5.63-33.57-21.5a1 1 0 0 1-.12-.78ZM183.2 36.98 171.61 17.5c-.4-.66-1.37-.65-1.79 0-5.73 8.83-15.63 12.9-19.09 14.1-.62.22-.9.96-.57 1.53l13.5 22.81c.2.34.59.53.97.42 2.13-.61 9.46-3.67 18.54-18.34a1 1 0 0 0 .01-1.04Z" fill="#9287ff"/><path d="m52.61 37.08 5.17-19.23c.2-.78 1.22-1 1.76-.4C74.4 33.7 93.16 33.08 99.4 32.33c.84-.1 1.5.82 1.1 1.58L87.34 58.86c-.2.38-.62.6-1.04.5-3.95-.82-23.62-5.63-33.57-21.5a1 1 0 0 1-.12-.78ZM183.2 36.98 171.61 17.5c-.4-.66-1.37-.65-1.79 0-5.73 8.83-15.63 12.9-19.09 14.1-.62.22-.9.96-.57 1.53l13.5 22.81c.2.34.59.53.97.42 2.13-.61 9.46-3.67 18.54-18.34a1 1 0 0 0 .01-1.04Z" fill="#fff" fill-opacity=".75"/><path d="m109.5 54.5-9-21.5-7 15 16 6.5ZM141 53.5l9-21.5 7 15-16 6.5ZM70.5 14l-12 3 10 6.5 2-9.5ZM160 14l11 3-7 6.5-4-9.5Z" fill="#000" stroke-linejoin="round"/></g></g></g></svg>