<svg xmlns="http://www.w3.org/2000/svg" viewBox="0 0 360 360" fill="none" shape-rendering="auto" width="128" height="128"><metadata xmlns:rdf="http://www.w3.org/1999/02/22-rdf-syntax-ns#" xmlns:xsi="http://www.w3.org/2001/XMLSchema-instance" xmlns:dc="http://purl.org/dc/elements/1.1/" xmlns:dcterms="http://purl.org/dc/terms/"><rdf:RDF><rdf:Description><dc:title>Avatar Illustration System</dc:title><dc:creator>Micah Lanier</dc:creator><dc:source xsi:type="dcterms:URI">https://www.figma.com/community/file/829741575478342595</dc:source><dcterms:license xsi:type="dcterms:URI">https://creativecommons.org/licenses/by/4.0/</dcterms:license><dc:rights>Remix of „Avatar Illustration System” (https://www.figma.com/community/file/829741575478342595) by „Micah Lanier”, licensed under „CC BY 4.0” (https://creativecommons.org/licenses/by/4.0/)</dc:rights></rdf:Description></rdf:RDF></metadata><mask id="viewboxMask"><rect width="360" height="360" rx="0" ry="0" x="0" y="0" fill="#fff" /></mask><g mask="url(#viewboxMask)"><rect fill="#b6e3f4" width="360" height="360" x="0" y="0" /><g transform="translate(80 23)"><path d="M154 319.5c-14.4-20-25.67-58.67-27-78L58.5 212 30 319.5h124Z" fill="#fff" stroke="#000" stroke-width="4"/><path d="M130.37 263.69c-2.1.2-4.22.31-6.37.31-30.78 0-56.05-21.57-58.76-49.1L127 241.5c.38 5.48 1.55 13.32 3.37 22.19Z" fill="#000" style="mix-blend-mode:multiply"/><path d="M181.94 151.37v.01l.1.4.14.65A75.72 75.72 0 0 1 34.93 187.7l-.2-.74L18 117.13l-.06-.29A75.72 75.72 0 0 1 165.2 81.55l.05.21.02.08.05.2.05.2v.01l16.4 68.44.08.34.08.34Z" fill="#fff" stroke="#000" stroke-width="4"/><g transform="translate(34 102.3)"><path d="M146.13 49.15A73.74 73.74 0 0 1 27.69 123.4C10.5 107.5 6.5 56 2.7 31.65c14 31.5 49.62 33.94 83.5 28 28.5-5 51.3-6 51.3-45 1.88 2.62 6.97 27.59 8.63 34.5Z" fill="#000000"/></g></g><g transform="translate(170 183)"><path d="M10 24.16c4.94 6.45 12.43 13.6 23.98 11.96 11.55-1.62 16.68-9.6 15.17-16.04" stroke="#ffffff33" stroke-width="4"/></g><g transform="translate(110 102)"><path d="M99 10.21c5.67-2.66 19-5.1 27 6.5M23.58 35.52c2.07-5.9 9.68-17.12 23.56-14.7M26.07 29.46l-6.14-5.43M122.96 11.16l6.15-5.43M32.52 23.81l-4.04-7.13M115.51 7.51l4.05-7.13M40.6 20.2l-2.2-7.9M106.44 6.9l2.2-7.9" stroke="#000000" stroke-width="4" stroke-linecap="round"/></g><g transform="translate(49 11)"><g fill="#e0ddff"><path opacity=".1" d="M187.99 77.18c-8-6.4-21.84-7-27.5-6.5l-8-26.5c13.6 3.2 32 24 35.5 33Z"/><path d="M85.8 11.76S91.52 7.8 115.74 1.7c24.21-6.1 33.04-3.72 33.04-3.72l11.8 72.84s-8.05-.18-28.04 4.19c-20 4.38-29.56 9.67-29.56 9.67l-17.2-72.9Z"/><path d="M48.99 86.68c-6.8-41.6 23.33-68.17 37-75.5l16.98 73.5c-19.2-39.6-45.33-15.17-54 2Z"/><path opacity=".1" d="M67.49 130.68c-7.2-27.2 22-41.84 35.5-46-7-16.34-23-31-42.5-13-18 30.5-11 54-5.5 72l12.5-13Z"/></g></g><g transform="translate(142 119)"><path d="M5.29 34.07c.11.82 1.14 1 1.72.41 2.46-2.52 6.25-4.36 10.65-4.89 2.6-.3 5.1-.12 7.32.48.75.2 1.5-.44 1.23-1.17A10.84 10.84 0 0 0 5.3 34.07ZM69.38 24.07c.12.82 1.15 1 1.73.41 2.44-2.48 6.19-4.3 10.54-4.83 2.56-.3 5.03-.12 7.23.47.75.2 1.5-.44 1.23-1.17a10.74 10.74 0 0 0-20.73 5.12Z" fill="#000000"/><g transform="translate(-40 -8)"></g></g><g transform="rotate(-8 1149.44 -1186.92)"><path d="M12.3 12.34c5.45-1.24 14.38.62 12.42 10.54-1.74 8.82-11.1 9.3-13.72 6.82" stroke="#000" stroke-width="4"/></g><g transform="translate(84 154)"><path d="M30.5 6.18A23.78 23.78 0 0 0 23.08 5c-10.5 0-19 6.5-18 18.5 1.04 12.5 8.5 17 19 17A19.6 19.6 0 0 0 31 39.23" stroke="#000" stroke-width="8"/><path d="M31.5 39.04a19.38 19.38 0 0 1-7.42 1.46c-10.5 0-17.96-4.5-19-17-1-12 7.5-18.5 18-18.5 3.14 0 6.19.6 8.92 1.73l-.5 32.3Z" fill="#fff"/><path d="M27.5 13.5c-4-1.83-12.8-2.8-16 8" stroke="#000" stroke-width="4"/><path d="M17 14c2.17 1.83 6.3 7.5 5.5 15.5" stroke="#000" stroke-width="4"/><g transform="translate(3 35)"></g></g><g transform="translate(53 272)"><g stroke="#000" stroke-width="4"><path d="M260.7 91H-12.64C3.67 61.66 26.86 42.98 64.44 34.4c16.02-3.65 34.67-5.47 56.56-5.47 9.46 0 16.81 1.44 23.8 3.35 2.58.7 5.18 1.5 7.84 2.3 4.4 1.34 8.97 2.72 13.91 3.86l.14.03.15.01c46.12 3.8 73.78 24.3 93.85 52.5Z" fill="#ffffff"/><path d="m52.93 36.58 9.15-19.6a1 1 0 0 1 1.25-.51c37.93 13.42 72.43 12.48 104.4 3.57a1 1 0 0 1 1.09.38l13.93 19.05a.98.98 0 0 1-.42 1.5c-33.6 13.2-96.67 10.95-128.91-3.07a.98.98 0 0 1-.49-1.32Z" fill="#ffffff"/><path opacity=".75" d="m52.93 36.58 9.15-19.6a1 1 0 0 1 1.25-.51c37.93 13.42 72.43 12.48 104.4 3.57a1 1 0 0 1 1.09.38l13.93 19.05a.98.98 0 0 1-.42 1.5c-33.6 13.2-96.67 10.95-128.91-3.07a.98.98 0 0 1-.49-1.32Z" fill="#fff"/></g></g></g></svg>